# xmcd
#
# Track frame offsets: 
#        150
#        16650
#        32120
#        44295
#        58600
#        70075
#        87740
#        105190
#        117840
#        130205
#        146455
#        163300
#        178565
#        195505
#        212000
#        231350
#        248190
#        265535
#        277705
#        292835
#
# Disc length: 4053 seconds
#
# Revision: 0
# Processed by: cddbd v1.5.2PL0 Copyright (c) Steve Scherf et al.
# Submitted via: ExactAudioCopy v1.3
#
DISCID=110fd314
DTITLE=青江三奈 - ゴールデン☆ベスト 青江三奈 カヴァーコレクション
DYEAR=2009
DGENRE=歌謡曲
TTITLE0=よこはま・たそがれ
TTITLE1=銀座ブルース
TTITLE2=赤坂の夜は更けて
TTITLE3=新宿ブルース
TTITLE4=京都慕情
TTITLE5=柳ヶ瀬ブルース
TTITLE6=島のブルース
TTITLE7=東京アンナ
TTITLE8=夜霧に消えたチャコ
TTITLE9=グッド・ナイト
TTITLE10=ワン・レイニー・ナイト・イン東京
TTITLE11=夜霧の第二国道
TTITLE12=東京ナイト・クラブ
TTITLE13=泣かないで
TTITLE14=再会
TTITLE15=アカシアの雨がやむとき
TTITLE16=カスバの女
TTITLE17=星の流れに
TTITLE18=別れのブルース
TTITLE19=港が見える丘
EXTD=
EXTT0=
EXTT1=
EXTT2=
EXTT3=
EXTT4=
EXTT5=
EXTT6=
EXTT7=
EXTT8=
EXTT9=
EXTT10=
EXTT11=
EXTT12=
EXTT13=
EXTT14=
EXTT15=
EXTT16=
EXTT17=
EXTT18=
EXTT19=
PLAYORDER=
